<?xml version="1.0" encoding="UTF-8" standalone="no"?>
<!-- Created with Inkscape (http://www.inkscape.org/) -->

<svg
   xmlns:dc="http://purl.org/dc/elements/1.1/"
   xmlns:cc="http://creativecommons.org/ns#"
   xmlns:rdf="http://www.w3.org/1999/02/22-rdf-syntax-ns#"
   xmlns:svg="http://www.w3.org/2000/svg"
   xmlns="http://www.w3.org/2000/svg"
   xmlns:sodipodi="http://sodipodi.sourceforge.net/DTD/sodipodi-0.dtd"
   xmlns:inkscape="http://www.inkscape.org/namespaces/inkscape"
   width="149.97128mm"
   height="29.29356mm"
   viewBox="0 0 531.39431 103.79607"
   id="svg2"
   version="1.1"
   inkscape:version="0.91 r13725"
   sodipodi:docname="logo-white.svg">
  <defs
     id="defs4" />
  <sodipodi:namedview
     id="base"
     pagecolor="#000000"
     bordercolor="#666666"
     borderopacity="1.0"
     inkscape:pageopacity="0"
     inkscape:pageshadow="2"
     inkscape:zoom="1"
     inkscape:cx="209.33496"
     inkscape:cy="-4.1019768"
     inkscape:document-units="px"
     inkscape:current-layer="layer1"
     showgrid="false"
     showguides="true"
     inkscape:guide-bbox="true"
     fit-margin-top="0"
     fit-margin-left="0"
     fit-margin-right="0"
     fit-margin-bottom="0"
     inkscape:window-width="1366"
     inkscape:window-height="704"
     inkscape:window-x="0"
     inkscape:window-y="27"
     inkscape:window-maximized="1" />
  <metadata
     id="metadata7">
    <rdf:RDF>
      <cc:Work
         rdf:about="">
        <dc:format>image/svg+xml</dc:format>
        <dc:type
           rdf:resource="http://purl.org/dc/dcmitype/StillImage" />
        <dc:title></dc:title>
      </cc:Work>
    </rdf:RDF>
  </metadata>
  <g
     inkscape:label="Layer 1"
     inkscape:groupmode="layer"
     id="layer1"
     transform="translate(-164.66701,-464.46416)">
    <text
       xml:space="preserve"
       style="font-style:normal;font-variant:normal;font-weight:normal;font-stretch:normal;font-size:40px;line-height:125%;font-family:'Circular Abstracts';-inkscape-font-specification:'Circular Abstracts';letter-spacing:0px;word-spacing:0px;fill:#ffffff;fill-opacity:1;stroke:none;stroke-width:1px;stroke-linecap:butt;stroke-linejoin:miter;stroke-opacity:1"
       x="91.428574"
       y="432.36221"
       id="text3336"
       sodipodi:linespacing="125%"><tspan
         sodipodi:role="line"
         id="tspan3338"
         x="91.428574"
         y="432.36221" /></text>
    <text
       xml:space="preserve"
       style="font-style:normal;font-variant:normal;font-weight:normal;font-stretch:normal;font-size:40px;line-height:125%;font-family:'Circular Abstracts';-inkscape-font-specification:'Circular Abstracts';letter-spacing:0px;word-spacing:0px;fill:#ffffff;fill-opacity:1;stroke:none;stroke-width:1px;stroke-linecap:butt;stroke-linejoin:miter;stroke-opacity:1"
       x="171.42857"
       y="326.64792"
       id="text3340"
       sodipodi:linespacing="125%"><tspan
         sodipodi:role="line"
         id="tspan3342"
         x="171.42857"
         y="326.64792" /></text>
    <text
       xml:space="preserve"
       style="font-style:normal;font-weight:normal;font-size:40.79012299px;line-height:125%;font-family:Sans;letter-spacing:0px;word-spacing:0px;fill:#ffffff;fill-opacity:1;stroke:none;stroke-width:1px;stroke-linecap:butt;stroke-linejoin:miter;stroke-opacity:1"
       x="250.97495"
       y="568.07654"
       id="text3344"
       sodipodi:linespacing="125%"><tspan
         sodipodi:role="line"
         id="tspan3346"
         x="250.97495"
         y="568.07654"
         style="font-style:normal;font-variant:normal;font-weight:normal;font-stretch:normal;font-size:91.77777863px;font-family:'Circular Abstracts';-inkscape-font-specification:'Circular Abstracts';fill:#ffffff">Ballers</tspan></text>
    <g
       id="g3564"
       transform="matrix(0.63189958,0,0,0.63189958,-106.20749,200.81543)"
       style="fill:#ffffff">
      <g
         transform="matrix(0.08717481,0,0,0.08717481,461.69278,450.05502)"
         id="_x31_4_26_"
         style="fill:#ffffff">
        <g
           id="g3352"
           style="fill:#ffffff">
          <path
             inkscape:connector-curvature="0"
             d="m 264.32,39.487 c 5.529,-7.328 4.64,-22.871 3.853,-36.582 C 268.143,2.314 268.11,1.736 268.077,1.149 260.327,0.409 252.482,0 244.542,0 c -30.425,0 -59.537,5.605 -86.406,15.766 19.167,9.211 48.836,25.065 81.814,48.49 11.252,-9.683 19.738,-18.622 24.37,-24.769 z"
             id="path3354"
             style="fill:#ffffff" />
          <path
             inkscape:connector-curvature="0"
             d="m 388.163,178.955 c -12.047,1.361 -22.207,3.338 -30.896,6.111 41.537,72.522 57.732,164.145 61.695,230.522 41.15,-41.928 67.283,-98.609 69.754,-161.393 -28.354,-34.852 -65.916,-79.169 -100.553,-75.24 z"
             id="path3356"
             style="fill:#ffffff" />
          <path
             inkscape:connector-curvature="0"
             d="M 141.232,116.356 C 170.417,110.283 197.836,95.594 219.698,80.089 174.09,48.677 136.05,32.375 128.483,29.272 81.166,54.851 43.302,95.606 21.274,144.987 c 28.632,-11.408 59.641,-17.212 90.098,-22.867 9.853,-1.83 20.038,-3.721 29.86,-5.764 z"
             id="path3358"
             style="fill:#ffffff" />
          <path
             inkscape:connector-curvature="0"
             d="m 310.171,123.463 c 2.605,2.618 5.203,5.281 7.783,7.994 9.521,9.995 18.16,20.927 26.082,32.493 11.537,-4.356 25.119,-7.445 41.377,-9.283 38.307,-4.333 72.369,26.012 101.604,59.42 -6.268,-50.645 -27.989,-96.482 -60.354,-132.631 -17.666,2.129 -37.361,5.736 -57.435,11.726 -13.168,3.933 -34.139,14.619 -59.057,30.281 z"
             id="path3360"
             style="fill:#ffffff" />
          <path
             inkscape:connector-curvature="0"
             d="m 278.011,249.688 c 10.025,-33.955 21.637,-58.432 44.135,-74.32 -6.752,-9.693 -14.018,-18.79 -21.889,-27.054 -3.641,-3.824 -7.323,-7.517 -11.021,-11.145 -90.263,61.439 -213.906,174.3 -225.149,272.086 37.53,41.062 88.892,69.222 146.712,77.211 21.053,-41.915 40.868,-127.124 52.646,-177.801 5.659,-24.341 10.543,-45.358 14.566,-58.977 z"
             id="path3362"
             style="fill:#ffffff" />
          <path
             inkscape:connector-curvature="0"
             d="m 175.668,195.843 c 31.472,-29.001 64.708,-55.007 95.107,-75.908 -10.133,-8.965 -20.297,-17.229 -30.275,-24.808 -25.249,18.98 -58.307,37.674 -94.291,45.158 -10.077,2.097 -20.396,4.014 -30.372,5.866 -38.438,7.138 -75.336,14.051 -106.366,31.364 -6.043,21.271 -9.348,43.697 -9.348,66.905 0,51.917 16.238,100.02 43.839,139.604 17.881,-70.797 79.213,-139.81 131.706,-188.181 z"
             id="path3364"
             style="fill:#ffffff" />
          <path
             inkscape:connector-curvature="0"
             d="m 291.829,105.975 c 29.078,-18.538 54.147,-31.356 70.412,-36.211 14.606,-4.362 28.934,-7.539 42.502,-9.856 C 373.39,32.663 335.065,13.245 292.757,4.781 c 0.938,17.07 1.347,35.811 -8.922,49.427 -4.879,6.466 -13.133,15.334 -23.873,24.955 10.518,8.187 21.207,17.115 31.867,26.812 z"
             id="path3366"
             style="fill:#ffffff" />
          <path
             inkscape:connector-curvature="0"
             d="m 301.45,256.609 c -3.816,12.928 -8.63,33.625 -14.199,57.588 -16.444,70.755 -32.179,134.067 -50.555,174.442 2.609,0.083 5.217,0.199 7.846,0.199 56.963,0 109.328,-19.539 150.885,-52.206 -1.641,-69.461 -18.293,-167.71 -60.238,-240.643 -16.268,12.091 -25.024,31.112 -33.739,60.62 z"
             id="path3368"
             style="fill:#ffffff" />
        </g>
      </g>
      <g
         id="g3561"
         style="fill:#ffffff">
        <path
           id="path3437"
           d="m 483.00035,417.232 c -29.95949,0 -54.33335,24.37386 -54.33335,54.333 0,12.06653 7.70533,31.73911 23.55499,60.14219 11.2114,20.08905 22.23832,36.83961 22.70162,37.54265 l 8.07674,12.24256 8.07639,-12.2422 c 0.46365,-0.7034 11.49128,-17.45361 22.70127,-37.54266 15.85037,-28.40343 23.55499,-48.07566 23.55499,-60.14219 3.5e-4,-29.95949 -24.37351,-54.33335 -54.33265,-54.33335 z m 0,82.1302 c -15.55429,0 -28.16403,-12.60939 -28.16403,-28.16404 0,-15.55464 12.60974,-28.16403 28.16403,-28.16403 15.55429,0 28.16404,12.60939 28.16404,28.16403 0,15.55465 -12.6101,28.16404 -28.16404,28.16404 z"
           inkscape:connector-curvature="0"
           style="fill:#ffffff" />
      </g>
    </g>
  </g>
</svg>
